#tb 0: 1/25
#media_type 0: video
#codec_id 0: rawvideo
#dimensions 0: 416x240
#sar 0: 0/1
0,          0,          0,        1,   149760, 0x304198c2
0,          1,          1,        1,   149760, 0xe765e30d
0,          2,          2,        1,   149760, 0x0130a054
0,          3,          3,        1,   149760, 0x169ed0c3
0,          4,          4,        1,   149760, 0x334881a5
0,          5,          5,        1,   149760, 0x06cadd37
0,          6,          6,        1,   149760, 0x5ec4a7ee
0,          7,          7,        1,   149760, 0x595fd534
0,          8,          8,        1,   149760, 0xa1d97197
0,          9,          9,        1,   149760, 0xf79a9d84
0,         10,         10,        1,   149760, 0x10d84f28
0,         11,         11,        1,   149760, 0xab375848
0,         12,         12,        1,   149760, 0x3079f8ca
0,         13,         13,        1,   149760, 0xac101dfb
0,         14,         14,        1,   149760, 0x5354f852
0,         15,         15,        1,   149760, 0x64d709d5
0,         16,         16,        1,   149760, 0xff669ff2
0,         17,         17,        1,   149760, 0xd20dd474
0,         18,         18,        1,   149760, 0x32439e22
0,         19,         19,        1,   149760, 0x3ae5a118
0,         20,         20,        1,   149760, 0xebe245ef
0,         21,         21,        1,   149760, 0x9d046e35
0,         22,         22,        1,   149760, 0x2e5b2347
0,         23,         23,        1,   149760, 0x0e683e86
0,         24,         24,        1,   149760, 0xccc1019e
0,         25,         25,        1,   149760, 0x42a9571a
0,         26,         26,        1,   149760, 0x8999386c
0,         27,         27,        1,   149760, 0x3d164645
0,         28,         28,        1,   149760, 0x657afc5e
0,         29,         29,        1,   149760, 0x06f832f9
0,         30,         30,        1,   149760, 0xfbedfe1e
0,         31,         31,        1,   149760, 0x1edc2fc5
0,         32,         32,        1,   149760, 0xe1cee4e7
0,         33,         33,        1,   149760, 0x43a823e0
0,         34,         34,        1,   149760, 0xc2f42916
0,         35,         35,        1,   149760, 0x51db1483
0,         36,         36,        1,   149760, 0x54a9d6bf
0,         37,         37,        1,   149760, 0x7324e246
0,         38,         38,        1,   149760, 0x2523cc9d
0,         39,         39,        1,   149760, 0xfa3bdce3
0,         40,         40,        1,   149760, 0xcf9fb7bb
0,         41,         41,        1,   149760, 0xe914e23c
0,         42,         42,        1,   149760, 0x6c9fd72a
0,         43,         43,        1,   149760, 0x3580cca9
0,         44,         44,        1,   149760, 0x1d4ec5c0
0,         45,         45,        1,   149760, 0x52c4d418
0,         46,         46,        1,   149760, 0xb728ae3e
0,         47,         47,        1,   149760, 0x6616ae50
0,         48,         48,        1,   149760, 0x6f1a919d
0,         49,         49,        1,   149760, 0x6e76b774
0,         50,         50,        1,   149760, 0x6075b37d
0,         51,         51,        1,   149760, 0xeeb7b8df
0,         52,         52,        1,   149760, 0xfd979056
0,         53,         53,        1,   149760, 0xc0fda5ee
0,         54,         54,        1,   149760, 0xd1329055
0,         55,         55,        1,   149760, 0x9b179f0f
0,         56,         56,        1,   149760, 0x7461850a
0,         57,         57,        1,   149760, 0xe63a86ea
0,         58,         58,        1,   149760, 0xe85c6f94
0,         59,         59,        1,   149760, 0x0b857d13
